#include "../include/hUGEDriver.h"
#include <stddef.h>

static const unsigned char order_cnt = 34;

static const unsigned char P0[] = {
    DN(D_6,1,0xF04),
    DN(___,0,0x000),
    DN(___,0,0x000),
    DN(___,0,0x000),
    DN(___,0,0x462),
    DN(___,0,0x462),
    DN(___,0,0x462),
    DN(___,0,0x462),
    DN(Cs6,1,0x000),
    DN(___,0,0x000),
    DN(___,0,0x000),
    DN(___,0,0x000),
    DN(___,0,0x462),
    DN(___,0,0x462),
    DN(B_5,1,0x000),
    DN(___,0,0x462),
    DN(A_5,1,0x000),
    DN(___,0,0x462),
    DN(___,0,0x462),
    DN(___,0,0x462),
    DN(Fs5,1,0x000),
    DN(___,0,0x462),
    DN(___,0,0x462),
    DN(___,0,0x462),
    DN(D_5,1,0x000),
    DN(___,0,0x462),
    DN(___,0,0x462),
    DN(___,0,0x462),
    DN(Fs5,1,0x000),
    DN(___,0,0x462),
    DN(___,0,0x462),
    DN(___,0,0x462),
    DN(A_5,1,0x000),
    DN(___,0,0x462),
    DN(___,0,0x462),
    DN(___,0,0x462),
    DN(A_5,1,0x000),
    DN(___,0,0x462),
    DN(B_5,1,0x000),
    DN(___,0,0x462),
    DN(A_5,1,0x000),
    DN(___,0,0x462),
    DN(___,0,0x462),
    DN(___,0,0x462),
    DN(A_5,1,0x000),
    DN(___,0,0x462),
    DN(B_5,1,0x000),
    DN(___,0,0x462),
    DN(A_5,1,0x000),
    DN(___,0,0x462),
    DN(___,0,0x462),
    DN(___,0,0x462),
    DN(___,0,0x462),
    DN(___,0,0x462),
    DN(___,0,0x462),
    DN(___,0,0x462),
    DN(___,0,0x462),
    DN(___,0,0x462),
    DN(___,0,0x462),
    DN(___,0,0x462),
    DN(___,0,0x462),
    DN(___,0,0x462),
    DN(___,0,0x462),
    DN(___,0,0x462),
};
static const unsigned char P1[] = {
    DN(D_4,2,0xCFF),
    DN(A_4,2,0xC77),
    DN(Fs4,2,0xCFF),
    DN(D_4,2,0xC77),
    DN(A_4,2,0xCFF),
    DN(Fs4,2,0xC77),
    DN(Fs4,2,0xCFF),
    DN(A_4,2,0xC77),
    DN(A_4,2,0xCFF),
    DN(Fs4,2,0xC77),
    DN(D_5,2,0xCFF),
    DN(A_4,2,0xC77),
    DN(A_4,2,0xCFF),
    DN(D_5,2,0xC77),
    DN(D_5,2,0xCFF),
    DN(A_4,2,0xC77),
    DN(Fs5,2,0xCFF),
    DN(D_5,2,0xC77),
    DN(D_5,2,0xCFF),
    DN(Fs5,2,0xC77),
    DN(A_4,2,0xCFF),
    DN(D_5,2,0xC77),
    DN(D_5,2,0xCFF),
    DN(A_4,2,0xC77),
    DN(A_4,2,0xCFF),
    DN(D_5,2,0xC77),
    DN(Fs4,2,0xCFF),
    DN(A_4,2,0xC77),
    DN(D_4,2,0xCFF),
    DN(Fs4,2,0xC77),
    DN(Fs4,2,0xCFF),
    DN(D_4,2,0xC77),
    DN(B_4,2,0xCFF),
    DN(Fs4,2,0xC77),
    DN(D_5,2,0xCFF),
    DN(B_4,2,0xC77),
    DN(G_5,2,0xCFF),
    DN(D_5,2,0xC77),
    DN(D_5,2,0xCFF),
    DN(G_5,2,0xC77),
    DN(B_4,2,0xCFF),
    DN(D_5,2,0xC77),
    DN(G_4,2,0xCFF),
    DN(B_4,2,0xC77),
    DN(D_4,2,0xCFF),
    DN(G_4,2,0xC77),
    DN(G_4,2,0xCFF),
    DN(D_4,2,0xC77),
    DN(Cs4,2,0xCFF),
    DN(G_4,2,0xC77),
    DN(E_4,2,0xCFF),
    DN(Cs4,2,0xC77),
    DN(A_4,2,0xCFF),
    DN(E_4,2,0xC77),
    DN(E_4,2,0xCFF),
    DN(A_4,2,0xC77),
    DN(A_4,2,0xCFF),
    DN(E_4,2,0xC77),
    DN(Cs5,2,0xCFF),
    DN(A_4,2,0xC77),
    DN(E_5,2,0xCFF),
    DN(Cs5,2,0xC77),
    DN(Cs5,2,0xCFF),
    DN(E_5,2,0xC77),
};
static const unsigned char P2[] = {
    DN(D_4,11,0x000),
    DN(___,0,0x000),
    DN(___,0,0x000),
    DN(___,0,0x000),
    DN(___,0,0x000),
    DN(___,0,0x000),
    DN(___,0,0x000),
    DN(___,0,0x000),
    DN(___,0,0x000),
    DN(___,0,0x000),
    DN(___,0,0x000),
    DN(___,0,0x000),
    DN(___,0,0x000),
    DN(___,0,0xE00),
    DN(D_4,11,0x000),
    DN(___,0,0xE00),
    DN(D_4,11,0x000),
    DN(___,0,0xE00),
    DN(D_4,11,0x000),
    DN(___,0,0x000),
    DN(___,0,0x000),
    DN(___,0,0x000),
    DN(___,0,0x000),
    DN(___,0,0x000),
    DN(___,0,0x000),
    DN(___,0,0x000),
    DN(___,0,0x000),
    DN(___,0,0x000),
    DN(___,0,0x000),
    DN(___,0,0xE00),
    DN(D_4,11,0x000),
    DN(___,0,0xE00),
    DN(B_3,11,0x000),
    DN(___,0,0x000),
    DN(___,0,0x000),
    DN(___,0,0x000),
    DN(___,0,0x000),
    DN(___,0,0x000),
    DN(___,0,0x000),
    DN(___,0,0x000),
    DN(___,0,0x000),
    DN(___,0,0x000),
    DN(___,0,0x000),
    DN(___,0,0x000),
    DN(___,0,0x000),
    DN(___,0,0xE00),
    DN(B_3,11,0x000),
    DN(___,0,0xE00),
    DN(Cs4,11,0x000),
    DN(___,0,0xE00),
    DN(Cs4,11,0x000),
    DN(___,0,0x000),
    DN(___,0,0x000),
    DN(___,0,0x000),
    DN(___,0,0x000),
    DN(___,0,0x000),
    DN(___,0,0x000),
    DN(___,0,0x000),
    DN(___,0,0x000),
    DN(___,0,0x000),
    DN(___,0,0x000),
    DN(___,0,0x000),
    DN(___,0,0x000),
    DN(___,0,0x000),
};
static const unsigned char P3[] = {
    DN(___,0,0x8FF),
    DN(___,0,0x8FD),
    DN(___,0,0x8FF),
    DN(___,0,0x8DF),
    DN(___,0,0x8FF),
    DN(___,0,0x8FD),
    DN(___,0,0x8FF),
    DN(___,0,0x8DF),
    DN(___,0,0x8FF),
    DN(___,0,0x8FD),
    DN(___,0,0x8FF),
    DN(___,0,0x8DF),
    DN(___,0,0x8FF),
    DN(___,0,0x8FD),
    DN(___,0,0x8FF),
    DN(___,0,0x8DF),
    DN(___,0,0x8FF),
    DN(___,0,0x8FD),
    DN(___,0,0x8FF),
    DN(___,0,0x8DF),
    DN(___,0,0x8FF),
    DN(___,0,0x8FD),
    DN(___,0,0x8FF),
    DN(___,0,0x8DF),
    DN(___,0,0x8FF),
    DN(___,0,0x8FD),
    DN(___,0,0x8FF),
    DN(___,0,0x8DF),
    DN(___,0,0x8FF),
    DN(___,0,0x8FD),
    DN(___,0,0x8FF),
    DN(___,0,0x8DF),
    DN(___,0,0x8FF),
    DN(___,0,0x8FD),
    DN(___,0,0x8FF),
    DN(___,0,0x8DF),
    DN(___,0,0x8FF),
    DN(___,0,0x8FD),
    DN(___,0,0x8FF),
    DN(___,0,0x8DF),
    DN(___,0,0x8FF),
    DN(___,0,0x8FD),
    DN(___,0,0x8FF),
    DN(___,0,0x8DF),
    DN(___,0,0x8FF),
    DN(___,0,0x8FD),
    DN(___,0,0x8FF),
    DN(___,0,0x8DF),
    DN(___,0,0x8FF),
    DN(___,0,0x8FD),
    DN(___,0,0x8FF),
    DN(___,0,0x8DF),
    DN(___,0,0x8FF),
    DN(___,0,0x8FD),
    DN(___,0,0x8FF),
    DN(___,0,0x8DF),
    DN(___,0,0x8FF),
    DN(___,0,0x8FD),
    DN(___,0,0x8FF),
    DN(___,0,0x8DF),
    DN(___,0,0x8FF),
    DN(___,0,0x8FD),
    DN(___,0,0x8FF),
    DN(___,0,0x8DF),
};
static const unsigned char P4[] = {
    DN(A_5,1,0x000),
    DN(___,0,0x000),
    DN(Gs5,1,0x000),
    DN(G_5,1,0x000),
    DN(Fs5,1,0x000),
    DN(___,0,0x000),
    DN(___,0,0x462),
    DN(___,0,0x462),
    DN(___,0,0x462),
    DN(___,0,0x462),
    DN(___,0,0x462),
    DN(___,0,0x462),
    DN(___,0,0x462),
    DN(___,0,0x462),
    DN(___,0,0x462),
    DN(___,0,0x462),
    DN(___,0,0x462),
    DN(___,0,0x462),
    DN(___,0,0x462),
    DN(___,0,0x462),
    DN(Fs5,1,0x000),
    DN(___,0,0x000),
    DN(___,0,0x422),
    DN(___,0,0x422),
    DN(G_5,1,0x000),
    DN(___,0,0x000),
    DN(___,0,0x422),
    DN(___,0,0x422),
    DN(A_5,1,0x000),
    DN(___,0,0x000),
    DN(___,0,0x422),
    DN(___,0,0x422),
    DN(Fs6,1,0x000),
    DN(___,0,0x000),
    DN(___,0,0x462),
    DN(___,0,0x462),
    DN(___,0,0x462),
    DN(___,0,0x462),
    DN(___,0,0x462),
    DN(___,0,0x462),
    DN(Fs6,1,0x000),
    DN(___,0,0x000),
    DN(___,0,0x462),
    DN(___,0,0x462),
    DN(___,0,0x462),
    DN(___,0,0x462),
    DN(___,0,0x462),
    DN(___,0,0x462),
    DN(D_6,1,0x000),
    DN(___,0,0x000),
    DN(___,0,0x462),
    DN(___,0,0x462),
    DN(___,0,0x462),
    DN(___,0,0x462),
    DN(___,0,0x462),
    DN(___,0,0x462),
    DN(___,0,0x462),
    DN(___,0,0x462),
    DN(___,0,0x462),
    DN(___,0,0x462),
    DN(___,0,0x462),
    DN(___,0,0x462),
    DN(___,0,0x462),
    DN(___,0,0x462),
};
static const unsigned char P5[] = {
    DN(D_4,2,0xCFF),
    DN(A_4,2,0xC77),
    DN(Fs4,2,0xCFF),
    DN(D_4,2,0xC77),
    DN(A_4,2,0xCFF),
    DN(Fs4,2,0xC77),
    DN(Fs4,2,0xCFF),
    DN(A_4,2,0xC77),
    DN(D_4,2,0xCFF),
    DN(A_4,2,0xC77),
    DN(Fs4,2,0xCFF),
    DN(D_4,2,0xC77),
    DN(A_4,2,0xCFF),
    DN(Fs4,2,0xC77),
    DN(Fs4,2,0xCFF),
    DN(A_4,2,0xC77),
    DN(D_4,2,0xCFF),
    DN(A_4,2,0xC77),
    DN(Fs4,2,0xCFF),
    DN(D_4,2,0xC77),
    DN(A_4,2,0xCFF),
    DN(Fs4,2,0xC77),
    DN(Fs4,2,0xCFF),
    DN(A_4,2,0xC77),
    DN(D_4,2,0xCFF),
    DN(A_4,2,0xC77),
    DN(Fs4,2,0xCFF),
    DN(D_4,2,0xC77),
    DN(A_4,2,0xCFF),
    DN(Fs4,2,0xC77),
    DN(Fs4,2,0xCFF),
    DN(A_4,2,0xC77),
    DN(D_4,2,0xCFF),
    DN(A_4,2,0xC77),
    DN(Fs4,2,0xCFF),
    DN(D_4,2,0xC77),
    DN(A_4,2,0xCFF),
    DN(Fs4,2,0xC77),
    DN(Fs4,2,0xCFF),
    DN(A_4,2,0xC77),
    DN(D_4,2,0xCFF),
    DN(A_4,2,0xC77),
    DN(Fs4,2,0xCFF),
    DN(D_4,2,0xC77),
    DN(A_4,2,0xCFF),
    DN(Fs4,2,0xC77),
    DN(Fs4,2,0xCFF),
    DN(A_4,2,0xC77),
    DN(D_4,2,0xCFF),
    DN(A_4,2,0xC77),
    DN(Fs4,2,0xCFF),
    DN(D_4,2,0xC77),
    DN(A_4,2,0xCFF),
    DN(Fs4,2,0xC77),
    DN(Fs4,2,0xCFF),
    DN(A_4,2,0xC77),
    DN(D_4,2,0xCFF),
    DN(A_4,2,0xC77),
    DN(Fs4,2,0xCFF),
    DN(D_4,2,0xC77),
    DN(A_4,2,0xCFF),
    DN(Fs4,2,0xC77),
    DN(Fs4,2,0xCFF),
    DN(A_4,2,0xC77),
};
static const unsigned char P6[] = {
    DN(D_5,3,0x26F),
    DN(D_4,11,0x000),
    DN(___,0,0x000),
    DN(___,0,0x000),
    DN(D_5,11,0x000),
    DN(___,0,0xE00),
    DN(D_4,11,0x000),
    DN(___,0,0xE00),
    DN(D_5,3,0x26F),
    DN(D_4,11,0x000),
    DN(___,0,0x000),
    DN(___,0,0xE00),
    DN(D_5,11,0x000),
    DN(___,0,0xE00),
    DN(D_4,11,0x000),
    DN(___,0,0xE00),
    DN(D_5,3,0x26F),
    DN(D_4,11,0x000),
    DN(___,0,0x000),
    DN(___,0,0x000),
    DN(D_5,11,0x000),
    DN(___,0,0xE00),
    DN(D_4,11,0x000),
    DN(___,0,0xE00),
    DN(D_5,3,0x26F),
    DN(D_4,11,0x000),
    DN(___,0,0x000),
    DN(___,0,0xE00),
    DN(D_5,11,0x000),
    DN(___,0,0xE00),
    DN(D_4,11,0x000),
    DN(___,0,0xE00),
    DN(D_5,3,0x26F),
    DN(D_4,11,0x000),
    DN(___,0,0x000),
    DN(___,0,0x000),
    DN(D_5,11,0x000),
    DN(___,0,0xE00),
    DN(D_4,11,0x000),
    DN(___,0,0xE00),
    DN(D_5,3,0x26F),
    DN(D_4,11,0x000),
    DN(___,0,0x000),
    DN(___,0,0xE00),
    DN(D_5,11,0x000),
    DN(___,0,0xE00),
    DN(D_4,11,0x000),
    DN(___,0,0xE00),
    DN(D_5,3,0x26F),
    DN(D_4,11,0x000),
    DN(___,0,0x000),
    DN(___,0,0x000),
    DN(D_5,11,0x000),
    DN(___,0,0xE00),
    DN(D_4,11,0x000),
    DN(___,0,0xE00),
    DN(D_5,3,0x26F),
    DN(D_4,11,0x000),
    DN(___,0,0x000),
    DN(___,0,0xE00),
    DN(D_5,11,0x000),
    DN(___,0,0xE00),
    DN(D_4,11,0x000),
    DN(___,0,0xE00),
};
static const unsigned char P7[] = {
    DN(C_5,1,0x8FF),
    DN(___,0,0x8FD),
    DN(C_6,2,0x8FF),
    DN(___,0,0x8DF),
    DN(C_5,3,0x8FF),
    DN(___,0,0x8FD),
    DN(C_6,2,0x8FF),
    DN(___,0,0x8DF),
    DN(C_5,1,0x8FF),
    DN(___,0,0x8FD),
    DN(C_5,1,0x8FF),
    DN(___,0,0x8DF),
    DN(C_5,3,0x8FF),
    DN(___,0,0x8FD),
    DN(C_6,2,0x8FF),
    DN(___,0,0x8DF),
    DN(C_5,1,0x8FF),
    DN(___,0,0x8FD),
    DN(C_6,2,0x8FF),
    DN(___,0,0x8DF),
    DN(C_5,3,0x8FF),
    DN(___,0,0x8FD),
    DN(C_6,2,0x8FF),
    DN(___,0,0x8DF),
    DN(C_5,1,0x8FF),
    DN(___,0,0x8FD),
    DN(C_5,1,0x8FF),
    DN(___,0,0x8DF),
    DN(C_5,3,0x8FF),
    DN(___,0,0x8FD),
    DN(C_5,1,0x8FF),
    DN(___,0,0x8DF),
    DN(C_5,1,0x8FF),
    DN(___,0,0x8FD),
    DN(C_6,2,0x8FF),
    DN(___,0,0x8DF),
    DN(C_5,3,0x8FF),
    DN(___,0,0x8FD),
    DN(C_6,2,0x8FF),
    DN(___,0,0x8DF),
    DN(C_5,1,0x8FF),
    DN(___,0,0x8FD),
    DN(C_5,1,0x8FF),
    DN(___,0,0x8DF),
    DN(C_5,3,0x8FF),
    DN(___,0,0x8FD),
    DN(C_6,2,0x8FF),
    DN(___,0,0x8DF),
    DN(C_5,1,0x8FF),
    DN(___,0,0x8FD),
    DN(C_6,2,0x8FF),
    DN(___,0,0x8DF),
    DN(C_5,3,0x8FF),
    DN(___,0,0x8FD),
    DN(C_6,2,0x8FF),
    DN(___,0,0x8DF),
    DN(C_5,1,0x8FF),
    DN(___,0,0x8FD),
    DN(C_5,1,0x8FF),
    DN(___,0,0x8DF),
    DN(C_5,3,0x8FF),
    DN(___,0,0x8FD),
    DN(C_5,1,0x8FF),
    DN(___,0,0x8DF),
};
static const unsigned char P8[] = {
    DN(A_5,1,0x000),
    DN(___,0,0x000),
    DN(Gs5,1,0x000),
    DN(G_5,1,0x000),
    DN(Fs5,1,0x000),
    DN(___,0,0x000),
    DN(___,0,0x462),
    DN(___,0,0x462),
    DN(___,0,0x462),
    DN(___,0,0x462),
    DN(___,0,0x462),
    DN(___,0,0x462),
    DN(___,0,0x462),
    DN(___,0,0x462),
    DN(___,0,0x462),
    DN(___,0,0x462),
    DN(___,0,0x462),
    DN(___,0,0x462),
    DN(___,0,0x462),
    DN(___,0,0x462),
    DN(Fs5,1,0x000),
    DN(___,0,0x000),
    DN(___,0,0x422),
    DN(___,0,0x422),
    DN(G_5,1,0x000),
    DN(___,0,0x000),
    DN(___,0,0x422),
    DN(___,0,0x422),
    DN(Fs5,1,0x000),
    DN(___,0,0x000),
    DN(___,0,0x422),
    DN(___,0,0x422),
    DN(A_5,1,0x000),
    DN(___,0,0x000),
    DN(___,0,0x462),
    DN(___,0,0x462),
    DN(___,0,0x462),
    DN(___,0,0x462),
    DN(___,0,0x462),
    DN(___,0,0x462),
    DN(A_5,1,0x000),
    DN(___,0,0x000),
    DN(___,0,0x462),
    DN(___,0,0x462),
    DN(___,0,0x462),
    DN(___,0,0x462),
    DN(___,0,0x462),
    DN(___,0,0x462),
    DN(G_5,1,0x000),
    DN(___,0,0x000),
    DN(___,0,0x462),
    DN(___,0,0x462),
    DN(___,0,0x462),
    DN(___,0,0x462),
    DN(___,0,0x462),
    DN(___,0,0x462),
    DN(___,0,0x462),
    DN(___,0,0x462),
    DN(___,0,0x462),
    DN(___,0,0x462),
    DN(___,0,0x462),
    DN(___,0,0x462),
    DN(___,0,0x462),
    DN(___,0,0x462),
};
static const unsigned char P9[] = {
    DN(D_4,2,0xCFF),
    DN(A_4,2,0xC77),
    DN(Fs4,2,0xCFF),
    DN(D_4,2,0xC77),
    DN(A_4,2,0xCFF),
    DN(Fs4,2,0xC77),
    DN(Fs4,2,0xCFF),
    DN(A_4,2,0xC77),
    DN(D_4,2,0xCFF),
    DN(A_4,2,0xC77),
    DN(Fs4,2,0xCFF),
    DN(D_4,2,0xC77),
    DN(A_4,2,0xCFF),
    DN(Fs4,2,0xC77),
    DN(Fs4,2,0xCFF),
    DN(A_4,2,0xC77),
    DN(D_4,2,0xCFF),
    DN(A_4,2,0xC77),
    DN(Fs4,2,0xCFF),
    DN(D_4,2,0xC77),
    DN(A_4,2,0xCFF),
    DN(Fs4,2,0xC77),
    DN(Fs4,2,0xCFF),
    DN(A_4,2,0xC77),
    DN(D_4,2,0xCFF),
    DN(A_4,2,0xC77),
    DN(Fs4,2,0xCFF),
    DN(D_4,2,0xC77),
    DN(A_4,2,0xCFF),
    DN(Fs4,2,0xC77),
    DN(Fs4,2,0xCFF),
    DN(A_4,2,0xC77),
    DN(Cs4,2,0xCFF),
    DN(E_4,2,0xC77),
    DN(E_4,2,0xCFF),
    DN(Cs4,2,0xC77),
    DN(A_4,2,0xCFF),
    DN(E_4,2,0xC77),
    DN(E_4,2,0xCFF),
    DN(A_4,2,0xC77),
    DN(Cs4,2,0xCFF),
    DN(E_4,2,0xC77),
    DN(E_4,2,0xCFF),
    DN(Cs4,2,0xC77),
    DN(A_4,2,0xCFF),
    DN(E_4,2,0xC77),
    DN(E_4,2,0xCFF),
    DN(A_4,2,0xC77),
    DN(Cs4,2,0xCFF),
    DN(E_4,2,0xC77),
    DN(E_4,2,0xCFF),
    DN(Cs4,2,0xC77),
    DN(A_4,2,0xCFF),
    DN(E_4,2,0xC77),
    DN(E_4,2,0xCFF),
    DN(A_4,2,0xC77),
    DN(Cs4,2,0xCFF),
    DN(E_4,2,0xC77),
    DN(E_4,2,0xCFF),
    DN(Cs4,2,0xC77),
    DN(A_4,2,0xCFF),
    DN(E_4,2,0xC77),
    DN(E_4,2,0xCFF),
    DN(A_4,2,0xC77),
};
static const unsigned char P10[] = {
    DN(D_5,3,0x26F),
    DN(D_4,11,0x000),
    DN(___,0,0x000),
    DN(___,0,0x000),
    DN(D_5,11,0x000),
    DN(___,0,0xE00),
    DN(D_4,11,0x000),
    DN(___,0,0xE00),
    DN(D_5,3,0x26F),
    DN(D_4,11,0x000),
    DN(___,0,0x000),
    DN(___,0,0xE00),
    DN(D_5,11,0x000),
    DN(___,0,0xE00),
    DN(D_4,11,0x000),
    DN(___,0,0xE00),
    DN(D_5,3,0x26F),
    DN(D_4,11,0x000),
    DN(___,0,0x000),
    DN(___,0,0x000),
    DN(D_5,11,0x000),
    DN(___,0,0xE00),
    DN(D_4,11,0x000),
    DN(___,0,0xE00),
    DN(D_5,3,0x26F),
    DN(D_4,11,0x000),
    DN(___,0,0x000),
    DN(___,0,0xE00),
    DN(D_5,11,0x000),
    DN(___,0,0xE00),
    DN(D_4,11,0x000),
    DN(___,0,0xE00),
    DN(D_5,3,0x26F),
    DN(A_3,11,0x000),
    DN(___,0,0x000),
    DN(___,0,0x000),
    DN(A_4,11,0x000),
    DN(___,0,0xE00),
    DN(A_3,11,0x000),
    DN(___,0,0xE00),
    DN(D_5,3,0x26F),
    DN(A_3,11,0x000),
    DN(___,0,0x000),
    DN(___,0,0xE00),
    DN(A_4,11,0x000),
    DN(___,0,0xE00),
    DN(A_3,11,0x000),
    DN(___,0,0xE00),
    DN(D_5,3,0x26F),
    DN(A_3,11,0x000),
    DN(___,0,0x000),
    DN(___,0,0x000),
    DN(A_4,11,0x000),
    DN(___,0,0xE00),
    DN(A_3,11,0x000),
    DN(___,0,0xE00),
    DN(D_5,3,0x26F),
    DN(A_3,11,0x000),
    DN(___,0,0x000),
    DN(___,0,0xE00),
    DN(A_4,11,0x000),
    DN(___,0,0xE00),
    DN(A_3,11,0x000),
    DN(___,0,0xE00),
};
static const unsigned char P11[] = {
    DN(G_5,1,0x000),
    DN(___,0,0x000),
    DN(Fs5,1,0x000),
    DN(F_5,1,0x000),
    DN(E_5,1,0x000),
    DN(___,0,0x000),
    DN(___,0,0x462),
    DN(___,0,0x462),
    DN(___,0,0x462),
    DN(___,0,0x462),
    DN(___,0,0x462),
    DN(___,0,0x462),
    DN(___,0,0x462),
    DN(___,0,0x462),
    DN(___,0,0x462),
    DN(___,0,0x462),
    DN(___,0,0x462),
    DN(___,0,0x462),
    DN(___,0,0x462),
    DN(___,0,0x462),
    DN(E_5,1,0x000),
    DN(___,0,0x000),
    DN(___,0,0x422),
    DN(___,0,0x422),
    DN(Fs5,1,0x000),
    DN(___,0,0x000),
    DN(___,0,0x422),
    DN(___,0,0x422),
    DN(G_5,1,0x000),
    DN(___,0,0x000),
    DN(___,0,0x422),
    DN(___,0,0x422),
    DN(A_5,1,0x000),
    DN(___,0,0x000),
    DN(Gs5,1,0x000),
    DN(G_5,1,0x000),
    DN(Fs5,1,0x000),
    DN(___,0,0x000),
    DN(___,0,0x462),
    DN(___,0,0x462),
    DN(___,0,0x462),
    DN(___,0,0x462),
    DN(___,0,0x462),
    DN(___,0,0x462),
    DN(___,0,0x462),
    DN(___,0,0x462),
    DN(___,0,0x462),
    DN(___,0,0x462),
    DN(___,0,0x462),
    DN(___,0,0x462),
    DN(___,0,0x462),
    DN(___,0,0x462),
    DN(Fs5,1,0x000),
    DN(___,0,0x000),
    DN(___,0,0x422),
    DN(___,0,0x422),
    DN(Gs5,1,0x000),
    DN(___,0,0x000),
    DN(___,0,0x422),
    DN(___,0,0x422),
    DN(Fs5,1,0x000),
    DN(___,0,0x000),
    DN(___,0,0x422),
    DN(___,0,0x422),
};
static const unsigned char P12[] = {
    DN(G_3,2,0xCFF),
    DN(B_3,2,0xC77),
    DN(B_3,2,0xCFF),
    DN(G_3,2,0xC77),
    DN(D_4,2,0xCFF),
    DN(B_3,2,0xC77),
    DN(B_3,2,0xCFF),
    DN(D_4,2,0xC77),
    DN(G_3,2,0xCFF),
    DN(B_3,2,0xC77),
    DN(B_3,2,0xCFF),
    DN(G_3,2,0xC77),
    DN(D_4,2,0xCFF),
    DN(B_3,2,0xC77),
    DN(B_3,2,0xCFF),
    DN(D_4,2,0xC77),
    DN(G_3,2,0xCFF),
    DN(B_3,2,0xC77),
    DN(B_3,2,0xCFF),
    DN(G_3,2,0xC77),
    DN(D_4,2,0xCFF),
    DN(B_3,2,0xC77),
    DN(B_3,2,0xCFF),
    DN(D_4,2,0xC77),
    DN(G_3,2,0xCFF),
    DN(B_3,2,0xC77),
    DN(B_3,2,0xCFF),
    DN(G_3,2,0xC77),
    DN(D_4,2,0xCFF),
    DN(B_3,2,0xC77),
    DN(B_3,2,0xCFF),
    DN(D_4,2,0xC77),
    DN(D_4,2,0xCFF),
    DN(A_4,2,0xC77),
    DN(Fs4,2,0xCFF),
    DN(D_4,2,0xC77),
    DN(A_4,2,0xCFF),
    DN(Fs4,2,0xC77),
    DN(Fs4,2,0xCFF),
    DN(A_4,2,0xC77),
    DN(D_4,2,0xCFF),
    DN(A_4,2,0xC77),
    DN(Fs4,2,0xCFF),
    DN(D_4,2,0xC77),
    DN(A_4,2,0xCFF),
    DN(Fs4,2,0xC77),
    DN(Fs4,2,0xCFF),
    DN(A_4,2,0xC77),
    DN(D_4,2,0xCFF),
    DN(A_4,2,0xC77),
    DN(Fs4,2,0xCFF),
    DN(D_4,2,0xC77),
    DN(A_4,2,0xCFF),
    DN(Fs4,2,0xC77),
    DN(Fs4,2,0xCFF),
    DN(A_4,2,0xC77),
    DN(D_4,2,0xCFF),
    DN(A_4,2,0xC77),
    DN(Fs4,2,0xCFF),
    DN(D_4,2,0xC77),
    DN(A_4,2,0xCFF),
    DN(Fs4,2,0xC77),
    DN(Fs4,2,0xCFF),
    DN(A_4,2,0xC77),
};
static const unsigned char P13[] = {
    DN(D_5,3,0x26F),
    DN(G_3,11,0x000),
    DN(___,0,0x000),
    DN(___,0,0x000),
    DN(G_4,11,0x000),
    DN(___,0,0xE00),
    DN(G_3,11,0x000),
    DN(___,0,0xE00),
    DN(D_5,3,0x26F),
    DN(G_3,11,0x000),
    DN(___,0,0x000),
    DN(___,0,0xE00),
    DN(G_4,11,0x000),
    DN(___,0,0xE00),
    DN(G_3,11,0x000),
    DN(___,0,0xE00),
    DN(D_5,3,0x26F),
    DN(G_3,11,0x000),
    DN(___,0,0x000),
    DN(___,0,0x000),
    DN(G_4,11,0x000),
    DN(___,0,0xE00),
    DN(G_3,11,0x000),
    DN(___,0,0xE00),
    DN(D_5,3,0x26F),
    DN(G_3,11,0x000),
    DN(___,0,0x000),
    DN(___,0,0xE00),
    DN(G_4,11,0x000),
    DN(___,0,0xE00),
    DN(G_3,11,0x000),
    DN(___,0,0xE00),
    DN(D_5,3,0x26F),
    DN(D_4,11,0x000),
    DN(___,0,0x000),
    DN(___,0,0x000),
    DN(D_5,11,0x000),
    DN(___,0,0xE00),
    DN(D_4,11,0x000),
    DN(___,0,0xE00),
    DN(D_5,3,0x26F),
    DN(D_4,11,0x000),
    DN(___,0,0x000),
    DN(___,0,0xE00),
    DN(D_5,11,0x000),
    DN(___,0,0xE00),
    DN(D_4,11,0x000),
    DN(___,0,0xE00),
    DN(D_5,3,0x26F),
    DN(D_4,11,0x000),
    DN(___,0,0x000),
    DN(___,0,0x000),
    DN(D_5,11,0x000),
    DN(___,0,0xE00),
    DN(D_4,11,0x000),
    DN(___,0,0xE00),
    DN(D_5,3,0x26F),
    DN(D_4,11,0x000),
    DN(___,0,0x000),
    DN(___,0,0xE00),
    DN(D_5,11,0x000),
    DN(___,0,0xE00),
    DN(D_4,11,0x000),
    DN(___,0,0xE00),
};
static const unsigned char P14[] = {
    DN(E_5,1,0x000),
    DN(___,0,0x000),
    DN(___,0,0x422),
    DN(___,0,0x422),
    DN(A_5,1,0x000),
    DN(___,0,0x000),
    DN(___,0,0x422),
    DN(___,0,0x422),
    DN(E_5,1,0x000),
    DN(___,0,0x000),
    DN(___,0,0x422),
    DN(___,0,0x422),
    DN(Fs5,1,0x000),
    DN(___,0,0x000),
    DN(___,0,0x422),
    DN(___,0,0x422),
    DN(Gs5,1,0x000),
    DN(___,0,0x000),
    DN(___,0,0x422),
    DN(___,0,0x422),
    DN(E_5,1,0x000),
    DN(___,0,0x000),
    DN(___,0,0x422),
    DN(___,0,0x422),
    DN(E_5,1,0x000),
    DN(___,0,0x000),
    DN(___,0,0x422),
    DN(___,0,0x422),
    DN(B_5,1,0x000),
    DN(___,0,0x000),
    DN(___,0,0x422),
    DN(___,0,0x422),
    DN(A_5,1,0x000),
    DN(___,0,0x000),
    DN(___,0,0x000),
    DN(___,0,0x000),
    DN(___,0,0x422),
    DN(___,0,0x422),
    DN(___,0,0x422),
    DN(___,0,0x422),
    DN(___,0,0x422),
    DN(___,0,0x422),
    DN(___,0,0x422),
    DN(___,0,0x422),
    DN(___,0,0x422),
    DN(___,0,0x422),
    DN(___,0,0x422),
    DN(___,0,0x422),
    DN(___,0,0x422),
    DN(___,0,0x422),
    DN(___,0,0x422),
    DN(___,0,0x422),
    DN(A_5,1,0x000),
    DN(___,0,0x000),
    DN(___,0,0x422),
    DN(___,0,0x422),
    DN(A_5,1,0x000),
    DN(___,0,0x000),
    DN(___,0,0x422),
    DN(___,0,0x422),
    DN(A_5,1,0x000),
    DN(___,0,0x000),
    DN(___,0,0x422),
    DN(___,0,0x422),
};
static const unsigned char P15[] = {
    DN(A_3,2,0xCFF),
    DN(Cs4,2,0xC77),
    DN(Cs4,2,0xCFF),
    DN(A_3,2,0xC77),
    DN(E_4,2,0xCFF),
    DN(Cs4,2,0xC77),
    DN(Cs4,2,0xCFF),
    DN(E_4,2,0xC77),
    DN(A_3,2,0xCFF),
    DN(Cs4,2,0xC77),
    DN(Cs4,2,0xCFF),
    DN(A_3,2,0xC77),
    DN(E_4,2,0xCFF),
    DN(Cs4,2,0xC77),
    DN(Cs4,2,0xCFF),
    DN(E_4,2,0xC77),
    DN(E_4,2,0xCFF),
    DN(Gs4,2,0xC77),
    DN(Gs4,2,0xCFF),
    DN(E_4,2,0xC77),
    DN(B_4,2,0xCFF),
    DN(Gs4,2,0xC77),
    DN(Gs4,2,0xCFF),
    DN(B_4,2,0xC77),
    DN(E_4,2,0xCFF),
    DN(Gs4,2,0xC77),
    DN(Gs4,2,0xCFF),
    DN(E_4,2,0xC77),
    DN(B_4,2,0xCFF),
    DN(Gs4,2,0xC77),
    DN(Gs4,2,0xCFF),
    DN(B_4,2,0xC77),
    DN(A_4,2,0xCFF),
    DN(Cs5,2,0xC77),
    DN(Cs5,2,0xCFF),
    DN(A_4,2,0xC77),
    DN(E_5,2,0xCFF),
    DN(Cs5,2,0xC77),
    DN(Cs5,2,0xCFF),
    DN(E_5,2,0xC77),
    DN(A_4,2,0xCFF),
    DN(Cs5,2,0xC77),
    DN(Cs5,2,0xCFF),
    DN(A_4,2,0xC77),
    DN(E_5,2,0xCFF),
    DN(Cs5,2,0xC77),
    DN(Cs5,2,0xCFF),
    DN(E_5,2,0xC77),
    DN(A_4,2,0xCFF),
    DN(Cs5,2,0xC77),
    DN(Cs5,2,0xCFF),
    DN(A_4,2,0xC77),
    DN(E_5,2,0xCFF),
    DN(Cs5,2,0xC77),
    DN(Cs5,2,0xCFF),
    DN(E_5,2,0xC77),
    DN(A_4,2,0xCFF),
    DN(Cs5,2,0xC77),
    DN(Cs5,2,0xCFF),
    DN(A_4,2,0xC77),
    DN(E_5,2,0xCFF),
    DN(Cs5,2,0xC77),
    DN(Cs5,2,0xCFF),
    DN(E_5,2,0xC77),
};
static const unsigned char P16[] = {
    DN(D_5,3,0x26F),
    DN(A_3,11,0x000),
    DN(___,0,0x000),
    DN(___,0,0x000),
    DN(A_4,11,0x000),
    DN(___,0,0xE00),
    DN(A_3,11,0x000),
    DN(___,0,0xE00),
    DN(D_5,3,0x26F),
    DN(A_3,11,0x000),
    DN(___,0,0x000),
    DN(___,0,0xE00),
    DN(A_4,11,0x000),
    DN(___,0,0xE00),
    DN(A_3,11,0x000),
    DN(___,0,0xE00),
    DN(D_5,3,0x26F),
    DN(E_4,11,0x000),
    DN(___,0,0x000),
    DN(___,0,0x000),
    DN(E_5,11,0x000),
    DN(___,0,0xE00),
    DN(E_4,11,0x000),
    DN(___,0,0xE00),
    DN(D_5,3,0x26F),
    DN(E_4,11,0x000),
    DN(___,0,0x000),
    DN(___,0,0xE00),
    DN(E_5,11,0x000),
    DN(___,0,0xE00),
    DN(E_4,11,0x000),
    DN(___,0,0xE00),
    DN(D_5,3,0x26F),
    DN(A_3,11,0x000),
    DN(___,0,0x000),
    DN(___,0,0x000),
    DN(A_4,11,0x000),
    DN(___,0,0xE00),
    DN(A_3,11,0x000),
    DN(___,0,0xE00),
    DN(D_5,3,0x26F),
    DN(A_3,11,0x000),
    DN(___,0,0x000),
    DN(___,0,0xE00),
    DN(A_4,11,0x000),
    DN(___,0,0xE00),
    DN(A_3,11,0x000),
    DN(___,0,0xE00),
    DN(D_5,3,0x26F),
    DN(A_3,11,0x000),
    DN(___,0,0x000),
    DN(___,0,0x000),
    DN(A_4,11,0x000),
    DN(___,0,0xE00),
    DN(A_3,11,0x000),
    DN(___,0,0xE00),
    DN(D_5,3,0x26F),
    DN(A_3,11,0x000),
    DN(___,0,0x000),
    DN(___,0,0xE00),
    DN(A_4,11,0x000),
    DN(___,0,0xE00),
    DN(A_3,11,0x000),
    DN(___,0,0xE00),
};
static const unsigned char P17[] = {
    DN(G_5,1,0x000),
    DN(___,0,0x000),
    DN(Fs5,1,0x000),
    DN(F_5,1,0x000),
    DN(E_5,1,0x000),
    DN(___,0,0x000),
    DN(___,0,0x462),
    DN(___,0,0x462),
    DN(___,0,0x462),
    DN(___,0,0x462),
    DN(___,0,0x462),
    DN(___,0,0x462),
    DN(___,0,0x462),
    DN(___,0,0x462),
    DN(___,0,0x462),
    DN(___,0,0x462),
    DN(___,0,0x462),
    DN(___,0,0x462),
    DN(___,0,0x462),
    DN(___,0,0x462),
    DN(B_5,1,0x000),
    DN(___,0,0x000),
    DN(___,0,0x422),
    DN(___,0,0x422),
    DN(Cs6,1,0x000),
    DN(___,0,0x000),
    DN(___,0,0x422),
    DN(___,0,0x422),
    DN(B_5,1,0x000),
    DN(___,0,0x000),
    DN(___,0,0x422),
    DN(___,0,0x422),
    DN(B_5,1,0x000),
    DN(___,0,0x000),
    DN(B_5,1,0x000),
    DN(As5,1,0x000),
    DN(A_5,1,0x000),
    DN(___,0,0x000),
    DN(___,0,0x462),
    DN(___,0,0x462),
    DN(___,0,0x462),
    DN(___,0,0x462),
    DN(___,0,0x462),
    DN(___,0,0x462),
    DN(___,0,0x462),
    DN(___,0,0x462),
    DN(___,0,0x462),
    DN(___,0,0x462),
    DN(___,0,0x462),
    DN(___,0,0x462),
    DN(___,0,0x462),
    DN(___,0,0x462),
    DN(A_5,1,0x000),
    DN(___,0,0x000),
    DN(___,0,0x422),
    DN(___,0,0x422),
    DN(G_5,1,0x000),
    DN(___,0,0x000),
    DN(___,0,0x422),
    DN(___,0,0x422),
    DN(Fs5,1,0x000),
    DN(___,0,0x000),
    DN(___,0,0x422),
    DN(___,0,0x422),
};
static const unsigned char P18[] = {
    DN(B_5,1,0x000),
    DN(___,0,0x462),
    DN(___,0,0x462),
    DN(___,0,0x462),
    DN(B_5,1,0x000),
    DN(___,0,0x000),
    DN(___,0,0x462),
    DN(___,0,0x462),
    DN(___,0,0x462),
    DN(___,0,0x462),
    DN(___,0,0x462),
    DN(___,0,0x462),
    DN(D_5,1,0x000),
    DN(___,0,0x000),
    DN(___,0,0x462),
    DN(___,0,0x462),
    DN(Cs5,1,0x000),
    DN(___,0,0x000),
    DN(___,0,0x462),
    DN(___,0,0x462),
    DN(A_4,1,0x000),
    DN(___,0,0x000),
    DN(___,0,0x000),
    DN(___,0,0x000),
    DN(___,0,0x462),
    DN(___,0,0x462),
    DN(___,0,0x462),
    DN(___,0,0x462),
    DN(Cs5,1,0x000),
    DN(___,0,0x000),
    DN(___,0,0x462),
    DN(___,0,0x462),
    DN(D_5,1,0x000),
    DN(___,0,0x000),
    DN(___,0,0x000),
    DN(___,0,0x000),
    DN(___,0,0x462),
    DN(___,0,0x462),
    DN(___,0,0x462),
    DN(___,0,0x462),
    DN(___,0,0x462),
    DN(___,0,0x462),
    DN(___,0,0x462),
    DN(___,0,0x462),
    DN(___,0,0x462),
    DN(___,0,0x462),
    DN(___,0,0x462),
    DN(___,0,0x462),
    DN(___,0,0x462),
    DN(___,0,0x462),
    DN(___,0,0x462),
    DN(___,0,0x462),
    DN(D_5,1,0x000),
    DN(___,0,0x000),
    DN(___,0,0x462),
    DN(___,0,0x462),
    DN(D_5,1,0x000),
    DN(___,0,0x000),
    DN(___,0,0x462),
    DN(___,0,0x462),
    DN(D_5,1,0x000),
    DN(___,0,0x000),
    DN(___,0,0x462),
    DN(___,0,0x462),
};
static const unsigned char P19[] = {
    DN(E_4,2,0xCFF),
    DN(Gs4,2,0xC77),
    DN(Gs4,2,0xCFF),
    DN(E_4,2,0xC77),
    DN(B_4,2,0xCFF),
    DN(Gs4,2,0xC77),
    DN(Gs4,2,0xCFF),
    DN(B_4,2,0xC77),
    DN(E_4,2,0xCFF),
    DN(Gs4,2,0xC77),
    DN(Gs4,2,0xCFF),
    DN(E_4,2,0xC77),
    DN(B_4,2,0xCFF),
    DN(Gs4,2,0xC77),
    DN(Gs4,2,0xCFF),
    DN(B_4,2,0xC77),
    DN(A_4,2,0xCFF),
    DN(Cs5,2,0xC77),
    DN(Cs5,2,0xCFF),
    DN(A_4,2,0xC77),
    DN(E_5,2,0xCFF),
    DN(Cs5,2,0xC77),
    DN(Cs5,2,0xCFF),
    DN(E_5,2,0xC77),
    DN(A_4,2,0xCFF),
    DN(Cs5,2,0xC77),
    DN(Cs5,2,0xCFF),
    DN(A_4,2,0xC77),
    DN(E_5,2,0xCFF),
    DN(Cs5,2,0xC77),
    DN(Cs5,2,0xCFF),
    DN(E_5,2,0xC77),
    DN(D_4,2,0xCFF),
    DN(A_4,2,0xC77),
    DN(Fs4,2,0xCFF),
    DN(D_4,2,0xC77),
    DN(A_4,2,0xCFF),
    DN(Fs4,2,0xC77),
    DN(Fs4,2,0xCFF),
    DN(A_4,2,0xC77),
    DN(D_4,2,0xCFF),
    DN(A_4,2,0xC77),
    DN(Fs4,2,0xCFF),
    DN(D_4,2,0xC77),
    DN(A_4,2,0xCFF),
    DN(Fs4,2,0xC77),
    DN(Fs4,2,0xCFF),
    DN(A_4,2,0xC77),
    DN(D_4,2,0xCFF),
    DN(A_4,2,0xC77),
    DN(Fs4,2,0xCFF),
    DN(D_4,2,0xC77),
    DN(A_4,2,0xCFF),
    DN(Fs4,2,0xC77),
    DN(Fs4,2,0xCFF),
    DN(A_4,2,0xC77),
    DN(D_4,2,0xCFF),
    DN(A_4,2,0xC77),
    DN(Fs4,2,0xCFF),
    DN(D_4,2,0xC77),
    DN(A_4,2,0xCFF),
    DN(Fs4,2,0xC77),
    DN(Fs4,2,0xCFF),
    DN(A_4,2,0xC77),
};
static const unsigned char P20[] = {
    DN(D_5,3,0x26F),
    DN(E_3,11,0x000),
    DN(___,0,0x000),
    DN(___,0,0x000),
    DN(E_4,11,0x000),
    DN(___,0,0xE00),
    DN(E_3,11,0x000),
    DN(___,0,0xE00),
    DN(D_5,3,0x26F),
    DN(E_3,11,0x000),
    DN(___,0,0x000),
    DN(___,0,0xE00),
    DN(E_4,11,0x000),
    DN(___,0,0xE00),
    DN(E_3,11,0x000),
    DN(___,0,0xE00),
    DN(D_5,3,0x26F),
    DN(A_3,11,0x000),
    DN(___,0,0x000),
    DN(___,0,0x000),
    DN(A_4,11,0x000),
    DN(___,0,0xE00),
    DN(A_3,11,0x000),
    DN(___,0,0xE00),
    DN(D_5,3,0x26F),
    DN(A_3,11,0x000),
    DN(___,0,0x000),
    DN(___,0,0xE00),
    DN(A_4,11,0x000),
    DN(___,0,0xE00),
    DN(A_3,11,0x000),
    DN(___,0,0xE00),
    DN(D_5,3,0x26F),
    DN(D_4,11,0x000),
    DN(___,0,0x000),
    DN(___,0,0x000),
    DN(D_5,11,0x000),
    DN(___,0,0xE00),
    DN(D_4,11,0x000),
    DN(___,0,0xE00),
    DN(D_5,3,0x26F),
    DN(D_4,11,0x000),
    DN(___,0,0x000),
    DN(___,0,0xE00),
    DN(D_5,11,0x000),
    DN(___,0,0xE00),
    DN(D_4,11,0x000),
    DN(___,0,0xE00),
    DN(D_5,3,0x26F),
    DN(D_4,11,0x000),
    DN(___,0,0x000),
    DN(___,0,0x000),
    DN(D_5,11,0x000),
    DN(___,0,0xE00),
    DN(D_4,11,0x000),
    DN(___,0,0xE00),
    DN(D_5,3,0x26F),
    DN(D_4,11,0x000),
    DN(___,0,0x000),
    DN(___,0,0xE00),
    DN(D_5,11,0x000),
    DN(___,0,0xE00),
    DN(D_4,11,0x000),
    DN(___,0,0xE00),
};
static const unsigned char P21[] = {
    DN(B_4,1,0x000),
    DN(___,0,0x000),
    DN(___,0,0x000),
    DN(___,0,0x000),
    DN(___,0,0x000),
    DN(___,0,0x000),
    DN(___,0,0x000),
    DN(___,0,0x000),
    DN(B_4,1,0x000),
    DN(D_5,1,0x30F),
    DN(___,0,0x30F),
    DN(___,0,0x000),
    DN(___,0,0x000),
    DN(___,0,0x000),
    DN(___,0,0x000),
    DN(___,0,0x000),
    DN(B_4,1,0x000),
    DN(___,0,0x000),
    DN(___,0,0x000),
    DN(___,0,0x000),
    DN(___,0,0x000),
    DN(___,0,0x000),
    DN(___,0,0x000),
    DN(___,0,0x000),
    DN(B_4,1,0x000),
    DN(D_5,1,0x30F),
    DN(___,0,0x30F),
    DN(___,0,0x000),
    DN(___,0,0x000),
    DN(___,0,0x000),
    DN(___,0,0x000),
    DN(___,0,0x000),
    DN(E_5,1,0x000),
    DN(___,0,0x000),
    DN(___,0,0x000),
    DN(___,0,0x000),
    DN(E_5,1,0x000),
    DN(D_5,1,0x30F),
    DN(___,0,0x30F),
    DN(___,0,0x000),
    DN(D_5,1,0x000),
    DN(___,0,0x000),
    DN(___,0,0x000),
    DN(___,0,0x000),
    DN(___,0,0x000),
    DN(___,0,0x000),
    DN(___,0,0x000),
    DN(___,0,0x000),
    DN(___,0,0x000),
    DN(___,0,0x000),
    DN(___,0,0x000),
    DN(___,0,0x000),
    DN(___,0,0x000),
    DN(___,0,0x000),
    DN(___,0,0x000),
    DN(___,0,0x000),
    DN(B_4,1,0x000),
    DN(___,0,0x000),
    DN(___,0,0x000),
    DN(___,0,0x000),
    DN(B_4,1,0x000),
    DN(___,0,0x000),
    DN(___,0,0x000),
    DN(___,0,0x000),
};
static const unsigned char P22[] = {
    DN(D_4,2,0xCFF),
    DN(G_4,2,0xC77),
    DN(G_4,2,0xCFF),
    DN(D_4,2,0xC77),
    DN(D_5,2,0xCFF),
    DN(G_4,2,0xC77),
    DN(B_4,2,0xCFF),
    DN(B_4,2,0xC77),
    DN(G_5,2,0xCFF),
    DN(G_4,2,0xC77),
    DN(D_5,2,0xCFF),
    DN(G_5,2,0xC77),
    DN(B_4,2,0xCFF),
    DN(D_5,2,0xC77),
    DN(G_4,2,0xCFF),
    DN(B_4,2,0xC77),
    DN(D_4,2,0xCFF),
    DN(G_4,2,0xC77),
    DN(G_4,2,0xCFF),
    DN(D_4,2,0xC77),
    DN(D_5,2,0xCFF),
    DN(G_4,2,0xC77),
    DN(B_4,2,0xCFF),
    DN(B_4,2,0xC77),
    DN(G_5,2,0xCFF),
    DN(G_4,2,0xC77),
    DN(D_5,2,0xCFF),
    DN(G_5,2,0xC77),
    DN(B_4,2,0xCFF),
    DN(D_5,2,0xC77),
    DN(G_4,2,0xCFF),
    DN(B_4,2,0xC77),
    DN(D_4,2,0xCFF),
    DN(G_4,2,0xC77),
    DN(G_4,2,0xCFF),
    DN(D_4,2,0xC77),
    DN(D_5,2,0xCFF),
    DN(G_4,2,0xC77),
    DN(B_4,2,0xCFF),
    DN(B_4,2,0xC77),
    DN(G_5,2,0xCFF),
    DN(G_4,2,0xC77),
    DN(D_5,2,0xCFF),
    DN(G_5,2,0xC77),
    DN(B_4,2,0xCFF),
    DN(D_5,2,0xC77),
    DN(G_4,2,0xCFF),
    DN(B_4,2,0xC77),
    DN(D_4,2,0xCFF),
    DN(G_4,2,0xC77),
    DN(G_4,2,0xCFF),
    DN(D_4,2,0xC77),
    DN(D_5,2,0xCFF),
    DN(G_4,2,0xC77),
    DN(B_4,2,0xCFF),
    DN(B_4,2,0xC77),
    DN(G_5,2,0xCFF),
    DN(G_4,2,0xC77),
    DN(D_5,2,0xCFF),
    DN(G_5,2,0xC77),
    DN(B_4,2,0xCFF),
    DN(D_5,2,0xC77),
    DN(G_4,2,0xCFF),
    DN(B_4,2,0xC77),
};
static const unsigned char P23[] = {
    DN(D_5,3,0x26F),
    DN(G_3,11,0x000),
    DN(___,0,0x000),
    DN(___,0,0x000),
    DN(G_4,11,0x000),
    DN(___,0,0xE00),
    DN(G_3,11,0x000),
    DN(___,0,0xE00),
    DN(D_5,3,0x26F),
    DN(G_3,11,0x000),
    DN(___,0,0x000),
    DN(___,0,0xE00),
    DN(G_4,11,0x000),
    DN(___,0,0xE00),
    DN(G_3,11,0x000),
    DN(___,0,0xE00),
    DN(D_5,3,0x26F),
    DN(G_3,11,0x000),
    DN(___,0,0x000),
    DN(___,0,0x000),
    DN(G_4,11,0x000),
    DN(___,0,0xE00),
    DN(G_3,11,0x000),
    DN(___,0,0xE00),
    DN(D_5,3,0x26F),
    DN(G_3,11,0x000),
    DN(___,0,0x000),
    DN(___,0,0xE00),
    DN(G_4,11,0x000),
    DN(___,0,0xE00),
    DN(G_3,11,0x000),
    DN(___,0,0xE00),
    DN(D_5,3,0x26F),
    DN(G_3,11,0x000),
    DN(___,0,0x000),
    DN(___,0,0x000),
    DN(G_4,11,0x000),
    DN(___,0,0xE00),
    DN(G_3,11,0x000),
    DN(___,0,0xE00),
    DN(D_5,3,0x26F),
    DN(G_3,11,0x000),
    DN(___,0,0x000),
    DN(___,0,0xE00),
    DN(G_4,11,0x000),
    DN(___,0,0xE00),
    DN(G_3,11,0x000),
    DN(___,0,0xE00),
    DN(D_5,3,0x26F),
    DN(G_3,11,0x000),
    DN(___,0,0x000),
    DN(___,0,0x000),
    DN(G_4,11,0x000),
    DN(___,0,0xE00),
    DN(G_3,11,0x000),
    DN(___,0,0xE00),
    DN(D_5,3,0x26F),
    DN(G_3,11,0x000),
    DN(___,0,0x000),
    DN(___,0,0xE00),
    DN(G_4,11,0x000),
    DN(___,0,0xE00),
    DN(G_3,11,0x000),
    DN(___,0,0xE00),
};
static const unsigned char P24[] = {
    DN(As4,1,0x000),
    DN(___,0,0x000),
    DN(___,0,0x000),
    DN(___,0,0x000),
    DN(___,0,0x000),
    DN(___,0,0x000),
    DN(___,0,0x000),
    DN(___,0,0x000),
    DN(B_4,1,0x000),
    DN(___,0,0x000),
    DN(___,0,0x000),
    DN(___,0,0x000),
    DN(B_4,1,0x000),
    DN(___,0,0x000),
    DN(___,0,0x000),
    DN(___,0,0x000),
    DN(B_4,1,0x000),
    DN(D_5,1,0x30F),
    DN(___,0,0x30F),
    DN(___,0,0x000),
    DN(___,0,0x000),
    DN(___,0,0x000),
    DN(___,0,0x000),
    DN(___,0,0x000),
    DN(G_4,1,0x000),
    DN(___,0,0x000),
    DN(___,0,0x000),
    DN(___,0,0x000),
    DN(___,0,0x000),
    DN(___,0,0x000),
    DN(___,0,0x000),
    DN(___,0,0x000),
    DN(G_4,1,0x000),
    DN(___,0,0x000),
    DN(___,0,0x000),
    DN(___,0,0x000),
    DN(G_4,1,0x000),
    DN(Fs4,1,0x30F),
    DN(___,0,0x30F),
    DN(___,0,0x000),
    DN(Fs4,1,0x000),
    DN(___,0,0x000),
    DN(___,0,0x000),
    DN(___,0,0x000),
    DN(___,0,0x000),
    DN(___,0,0x000),
    DN(___,0,0x000),
    DN(___,0,0x000),
    DN(___,0,0x000),
    DN(___,0,0x000),
    DN(___,0,0x000),
    DN(___,0,0x000),
    DN(___,0,0x000),
    DN(___,0,0x000),
    DN(___,0,0x000),
    DN(___,0,0x000),
    DN(A_4,1,0x000),
    DN(___,0,0x000),
    DN(___,0,0x000),
    DN(___,0,0x000),
    DN(B_4,1,0x000),
    DN(___,0,0x000),
    DN(___,0,0x000),
    DN(___,0,0x000),
};
static const unsigned char P25[] = {
    DN(D_4,2,0xCFF),
    DN(G_4,2,0xC77),
    DN(G_4,2,0xCFF),
    DN(D_4,2,0xC77),
    DN(D_5,2,0xCFF),
    DN(G_4,2,0xC77),
    DN(B_4,2,0xCFF),
    DN(B_4,2,0xC77),
    DN(G_5,2,0xCFF),
    DN(G_4,2,0xC77),
    DN(D_5,2,0xCFF),
    DN(G_5,2,0xC77),
    DN(B_4,2,0xCFF),
    DN(D_5,2,0xC77),
    DN(G_4,2,0xCFF),
    DN(B_4,2,0xC77),
    DN(D_4,2,0xCFF),
    DN(G_4,2,0xC77),
    DN(G_4,2,0xCFF),
    DN(D_4,2,0xC77),
    DN(D_5,2,0xCFF),
    DN(G_4,2,0xC77),
    DN(B_4,2,0xCFF),
    DN(B_4,2,0xC77),
    DN(G_5,2,0xCFF),
    DN(G_4,2,0xC77),
    DN(D_5,2,0xCFF),
    DN(G_5,2,0xC77),
    DN(B_4,2,0xCFF),
    DN(D_5,2,0xC77),
    DN(G_4,2,0xCFF),
    DN(B_4,2,0xC77),
    DN(D_4,2,0xCFF),
    DN(Fs4,2,0xC77),
    DN(Fs4,2,0xCFF),
    DN(D_4,2,0xC77),
    DN(A_4,2,0xCFF),
    DN(Fs4,2,0xC77),
    DN(Fs4,2,0xCFF),
    DN(A_4,2,0xC77),
    DN(Fs5,2,0xCFF),
    DN(Fs4,2,0xC77),
    DN(D_5,2,0xCFF),
    DN(Fs5,2,0xC77),
    DN(A_4,2,0xCFF),
    DN(D_5,2,0xC77),
    DN(Fs4,2,0xCFF),
    DN(A_4,2,0xC77),
    DN(D_4,2,0xCFF),
    DN(Fs4,2,0xC77),
    DN(Fs4,2,0xCFF),
    DN(D_4,2,0xC77),
    DN(A_4,2,0xCFF),
    DN(Fs4,2,0xC77),
    DN(Fs4,2,0xCFF),
    DN(A_4,2,0xC77),
    DN(Fs5,2,0xCFF),
    DN(Fs4,2,0xC77),
    DN(D_5,2,0xCFF),
    DN(Fs5,2,0xC77),
    DN(A_4,2,0xCFF),
    DN(D_5,2,0xC77),
    DN(Fs4,2,0xCFF),
    DN(A_4,2,0xC77),
};
static const unsigned char P27[] = {
    DN(C_5,1,0x000),
    DN(___,0,0x000),
    DN(___,0,0x000),
    DN(___,0,0x000),
    DN(___,0,0x000),
    DN(___,0,0x000),
    DN(___,0,0x000),
    DN(___,0,0x000),
    DN(B_4,1,0x000),
    DN(___,0,0x000),
    DN(___,0,0x000),
    DN(___,0,0x000),
    DN(___,0,0x000),
    DN(___,0,0x000),
    DN(___,0,0x000),
    DN(___,0,0x000),
    DN(D_5,1,0x000),
    DN(___,0,0x000),
    DN(___,0,0x000),
    DN(___,0,0x000),
    DN(___,0,0x000),
    DN(___,0,0x000),
    DN(___,0,0x000),
    DN(___,0,0x000),
    DN(C_5,1,0x000),
    DN(___,0,0x000),
    DN(___,0,0x000),
    DN(___,0,0x000),
    DN(___,0,0x000),
    DN(___,0,0x000),
    DN(___,0,0x000),
    DN(___,0,0x000),
    DN(Gs4,1,0x000),
    DN(___,0,0x000),
    DN(___,0,0x000),
    DN(___,0,0x000),
    DN(Gs4,1,0x000),
    DN(A_4,1,0x30F),
    DN(___,0,0x30F),
    DN(___,0,0x000),
    DN(A_4,1,0x000),
    DN(___,0,0x000),
    DN(___,0,0x000),
    DN(___,0,0x000),
    DN(___,0,0x000),
    DN(___,0,0x000),
    DN(___,0,0x000),
    DN(___,0,0x000),
    DN(___,0,0x000),
    DN(___,0,0x000),
    DN(___,0,0x000),
    DN(___,0,0x000),
    DN(___,0,0x000),
    DN(___,0,0x000),
    DN(___,0,0x000),
    DN(___,0,0x000),
    DN(D_5,1,0x000),
    DN(___,0,0x000),
    DN(___,0,0x000),
    DN(___,0,0x000),
    DN(D_5,1,0x000),
    DN(___,0,0x000),
    DN(___,0,0x000),
    DN(___,0,0x000),
};
static const unsigned char P28[] = {
    DN(D_4,2,0xCFF),
    DN(Fs4,2,0xC77),
    DN(Fs4,2,0xCFF),
    DN(D_4,2,0xC77),
    DN(A_4,2,0xCFF),
    DN(Fs4,2,0xC77),
    DN(Fs4,2,0xCFF),
    DN(A_4,2,0xC77),
    DN(Fs5,2,0xCFF),
    DN(Fs4,2,0xC77),
    DN(D_5,2,0xCFF),
    DN(Fs5,2,0xC77),
    DN(A_4,2,0xCFF),
    DN(D_5,2,0xC77),
    DN(Fs4,2,0xCFF),
    DN(A_4,2,0xC77),
    DN(D_4,2,0xCFF),
    DN(Fs4,2,0xC77),
    DN(Fs4,2,0xCFF),
    DN(D_4,2,0xC77),
    DN(A_4,2,0xCFF),
    DN(Fs4,2,0xC77),
    DN(Fs4,2,0xCFF),
    DN(A_4,2,0xC77),
    DN(Fs5,2,0xCFF),
    DN(Fs4,2,0xC77),
    DN(D_5,2,0xCFF),
    DN(Fs5,2,0xC77),
    DN(A_4,2,0xCFF),
    DN(D_5,2,0xC77),
    DN(Fs4,2,0xCFF),
    DN(A_4,2,0xC77),
    DN(D_4,2,0xCFF),
    DN(Fs4,2,0xC77),
    DN(Fs4,2,0xCFF),
    DN(D_4,2,0xC77),
    DN(A_4,2,0xCFF),
    DN(Fs4,2,0xC77),
    DN(Fs4,2,0xCFF),
    DN(A_4,2,0xC77),
    DN(Fs5,2,0xCFF),
    DN(Fs4,2,0xC77),
    DN(D_5,2,0xCFF),
    DN(Fs5,2,0xC77),
    DN(A_4,2,0xCFF),
    DN(D_5,2,0xC77),
    DN(Fs4,2,0xCFF),
    DN(A_4,2,0xC77),
    DN(D_4,2,0xCFF),
    DN(Fs4,2,0xC77),
    DN(Fs4,2,0xCFF),
    DN(D_4,2,0xC77),
    DN(A_4,2,0xCFF),
    DN(Fs4,2,0xC77),
    DN(Fs4,2,0xCFF),
    DN(A_4,2,0xC77),
    DN(Fs5,2,0xCFF),
    DN(Fs4,2,0xC77),
    DN(D_5,2,0xCFF),
    DN(Fs5,2,0xC77),
    DN(A_4,2,0xCFF),
    DN(D_5,2,0xC77),
    DN(Fs4,2,0xCFF),
    DN(A_4,2,0xC77),
};
static const unsigned char P30[] = {
    DN(Fs5,1,0x000),
    DN(___,0,0x000),
    DN(___,0,0x000),
    DN(___,0,0x000),
    DN(___,0,0x000),
    DN(___,0,0x000),
    DN(___,0,0x000),
    DN(___,0,0x000),
    DN(E_5,1,0x000),
    DN(___,0,0x000),
    DN(___,0,0x000),
    DN(___,0,0x000),
    DN(___,0,0x000),
    DN(___,0,0x000),
    DN(___,0,0x000),
    DN(___,0,0x000),
    DN(D_5,1,0x000),
    DN(___,0,0x000),
    DN(___,0,0x000),
    DN(___,0,0x000),
    DN(___,0,0x000),
    DN(___,0,0x000),
    DN(___,0,0x000),
    DN(___,0,0x000),
    DN(C_5,1,0x000),
    DN(___,0,0x000),
    DN(___,0,0x000),
    DN(___,0,0x000),
    DN(___,0,0x000),
    DN(___,0,0x000),
    DN(___,0,0x000),
    DN(___,0,0x000),
    DN(C_5,1,0x000),
    DN(___,0,0x000),
    DN(___,0,0x000),
    DN(___,0,0x000),
    DN(C_5,1,0x000),
    DN(B_4,1,0x30F),
    DN(___,0,0x30F),
    DN(___,0,0x000),
    DN(B_4,1,0x000),
    DN(___,0,0x000),
    DN(___,0,0x000),
    DN(___,0,0x000),
    DN(___,0,0x000),
    DN(___,0,0x000),
    DN(___,0,0x000),
    DN(___,0,0x000),
    DN(___,0,0x000),
    DN(___,0,0x000),
    DN(___,0,0x000),
    DN(___,0,0x000),
    DN(___,0,0x000),
    DN(___,0,0x000),
    DN(___,0,0x000),
    DN(___,0,0x000),
    DN(D_5,1,0x000),
    DN(___,0,0x000),
    DN(D_5,1,0x000),
    DN(___,0,0x000),
    DN(D_5,1,0x000),
    DN(___,0,0x000),
    DN(D_5,1,0x000),
    DN(___,0,0x000),
};
static const unsigned char P31[] = {
    DN(D_4,2,0xCFF),
    DN(Fs4,2,0xC77),
    DN(Fs4,2,0xCFF),
    DN(D_4,2,0xC77),
    DN(A_4,2,0xCFF),
    DN(Fs4,2,0xC77),
    DN(Fs4,2,0xCFF),
    DN(A_4,2,0xC77),
    DN(Fs5,2,0xCFF),
    DN(Fs4,2,0xC77),
    DN(D_5,2,0xCFF),
    DN(Fs5,2,0xC77),
    DN(A_4,2,0xCFF),
    DN(D_5,2,0xC77),
    DN(Fs4,2,0xCFF),
    DN(A_4,2,0xC77),
    DN(D_4,2,0xCFF),
    DN(Fs4,2,0xC77),
    DN(Fs4,2,0xCFF),
    DN(D_4,2,0xC77),
    DN(A_4,2,0xCFF),
    DN(Fs4,2,0xC77),
    DN(Fs4,2,0xCFF),
    DN(A_4,2,0xC77),
    DN(Fs5,2,0xCFF),
    DN(Fs4,2,0xC77),
    DN(D_5,2,0xCFF),
    DN(Fs5,2,0xC77),
    DN(A_4,2,0xCFF),
    DN(D_5,2,0xC77),
    DN(Fs4,2,0xCFF),
    DN(A_4,2,0xC77),
    DN(D_4,2,0xCFF),
    DN(G_4,2,0xC77),
    DN(G_4,2,0xCFF),
    DN(D_4,2,0xC77),
    DN(D_5,2,0xCFF),
    DN(G_4,2,0xC77),
    DN(B_4,2,0xCFF),
    DN(B_4,2,0xC77),
    DN(G_5,2,0xCFF),
    DN(G_4,2,0xC77),
    DN(D_5,2,0xCFF),
    DN(G_5,2,0xC77),
    DN(B_4,2,0xCFF),
    DN(D_5,2,0xC77),
    DN(G_4,2,0xCFF),
    DN(B_4,2,0xC77),
    DN(D_4,2,0xCFF),
    DN(G_4,2,0xC77),
    DN(G_4,2,0xCFF),
    DN(D_4,2,0xC77),
    DN(D_5,2,0xCFF),
    DN(G_4,2,0xC77),
    DN(B_4,2,0xCFF),
    DN(B_4,2,0xC77),
    DN(G_5,2,0xCFF),
    DN(G_4,2,0xC77),
    DN(D_5,2,0xCFF),
    DN(G_5,2,0xC77),
    DN(B_4,2,0xCFF),
    DN(D_5,2,0xC77),
    DN(G_4,2,0xCFF),
    DN(B_4,2,0xC77),
};
static const unsigned char P32[] = {
    DN(D_5,3,0x26F),
    DN(D_4,11,0x000),
    DN(___,0,0x000),
    DN(___,0,0x000),
    DN(D_5,11,0x000),
    DN(___,0,0xE00),
    DN(D_4,11,0x000),
    DN(___,0,0xE00),
    DN(D_5,3,0x26F),
    DN(D_4,11,0x000),
    DN(___,0,0x000),
    DN(___,0,0xE00),
    DN(D_5,11,0x000),
    DN(___,0,0xE00),
    DN(D_4,11,0x000),
    DN(___,0,0xE00),
    DN(D_5,3,0x26F),
    DN(D_4,11,0x000),
    DN(___,0,0x000),
    DN(___,0,0x000),
    DN(D_5,11,0x000),
    DN(___,0,0xE00),
    DN(D_4,11,0x000),
    DN(___,0,0xE00),
    DN(D_5,3,0x26F),
    DN(D_4,11,0x000),
    DN(___,0,0x000),
    DN(___,0,0xE00),
    DN(D_5,11,0x000),
    DN(___,0,0xE00),
    DN(D_4,11,0x000),
    DN(___,0,0xE00),
    DN(D_5,3,0x26F),
    DN(G_3,11,0x000),
    DN(___,0,0x000),
    DN(___,0,0x000),
    DN(G_4,11,0x000),
    DN(___,0,0xE00),
    DN(G_3,11,0x000),
    DN(___,0,0xE00),
    DN(D_5,3,0x26F),
    DN(G_3,11,0x000),
    DN(___,0,0x000),
    DN(___,0,0xE00),
    DN(G_4,11,0x000),
    DN(___,0,0xE00),
    DN(G_3,11,0x000),
    DN(___,0,0xE00),
    DN(D_5,3,0x26F),
    DN(G_3,11,0x000),
    DN(___,0,0x000),
    DN(___,0,0x000),
    DN(G_4,11,0x000),
    DN(___,0,0xE00),
    DN(G_3,11,0x000),
    DN(___,0,0xE00),
    DN(D_5,3,0x26F),
    DN(G_3,11,0x000),
    DN(___,0,0x000),
    DN(___,0,0xE00),
    DN(G_4,11,0x000),
    DN(___,0,0xE00),
    DN(G_3,11,0x000),
    DN(___,0,0xE00),
};
static const unsigned char P33[] = {
    DN(G_5,1,0x000),
    DN(___,0,0x000),
    DN(___,0,0x000),
    DN(___,0,0x000),
    DN(___,0,0x000),
    DN(___,0,0x000),
    DN(___,0,0x000),
    DN(___,0,0x000),
    DN(Fs5,1,0x000),
    DN(___,0,0x000),
    DN(___,0,0x000),
    DN(___,0,0x000),
    DN(Fs5,1,0x000),
    DN(___,0,0x000),
    DN(___,0,0x000),
    DN(___,0,0x000),
    DN(G_5,1,0x000),
    DN(A_5,1,0x30F),
    DN(___,0,0x30F),
    DN(___,0,0x000),
    DN(___,0,0x000),
    DN(___,0,0x000),
    DN(___,0,0x000),
    DN(___,0,0x000),
    DN(G_5,1,0x000),
    DN(___,0,0x000),
    DN(___,0,0x000),
    DN(___,0,0x000),
    DN(___,0,0x000),
    DN(___,0,0x000),
    DN(___,0,0x000),
    DN(___,0,0x000),
    DN(D_5,1,0x000),
    DN(___,0,0x000),
    DN(___,0,0x000),
    DN(___,0,0x000),
    DN(D_5,1,0x000),
    DN(C_5,1,0x30F),
    DN(___,0,0x30F),
    DN(___,0,0x30F),
    DN(___,0,0x000),
    DN(___,0,0x000),
    DN(___,0,0x000),
    DN(___,0,0x000),
    DN(___,0,0x000),
    DN(___,0,0x000),
    DN(___,0,0x000),
    DN(___,0,0x000),
    DN(___,0,0x000),
    DN(___,0,0x000),
    DN(___,0,0x000),
    DN(___,0,0x000),
    DN(___,0,0x000),
    DN(___,0,0x000),
    DN(___,0,0x000),
    DN(___,0,0x000),
    DN(C_5,1,0x000),
    DN(___,0,0x000),
    DN(B_4,1,0x000),
    DN(___,0,0x000),
    DN(C_5,1,0x000),
    DN(___,0,0x000),
    DN(D_5,1,0x000),
    DN(___,0,0x000),
};
static const unsigned char P34[] = {
    DN(E_5,1,0x000),
    DN(___,0,0x000),
    DN(___,0,0x000),
    DN(___,0,0x000),
    DN(___,0,0x000),
    DN(___,0,0x000),
    DN(E_5,1,0x000),
    DN(Ds5,1,0x000),
    DN(E_5,1,0x000),
    DN(___,0,0x000),
    DN(Ds5,1,0x000),
    DN(___,0,0x000),
    DN(E_5,1,0x000),
    DN(___,0,0x000),
    DN(Fs5,1,0x000),
    DN(___,0,0x000),
    DN(G_5,1,0x000),
    DN(___,0,0x000),
    DN(___,0,0x000),
    DN(___,0,0x000),
    DN(___,0,0x000),
    DN(___,0,0x000),
    DN(G_5,1,0x000),
    DN(Fs5,1,0x000),
    DN(G_5,1,0x000),
    DN(___,0,0x000),
    DN(Fs5,1,0x000),
    DN(___,0,0x000),
    DN(G_5,1,0x000),
    DN(___,0,0x000),
    DN(A_5,1,0x000),
    DN(___,0,0x000),
    DN(B_5,1,0x000),
    DN(___,0,0x000),
    DN(___,0,0x000),
    DN(___,0,0x000),
    DN(E_6,1,0x000),
    DN(___,0,0x000),
    DN(___,0,0x000),
    DN(___,0,0x000),
    DN(D_6,1,0x000),
    DN(___,0,0x000),
    DN(___,0,0x000),
    DN(___,0,0x000),
    DN(___,0,0x000),
    DN(___,0,0x000),
    DN(___,0,0x000),
    DN(___,0,0x000),
    DN(___,0,0x000),
    DN(___,0,0x000),
    DN(___,0,0x000),
    DN(___,0,0x000),
    DN(___,0,0x000),
    DN(___,0,0x000),
    DN(___,0,0x000),
    DN(___,0,0x000),
    DN(D_6,1,0x000),
    DN(___,0,0x000),
    DN(Cs6,1,0x000),
    DN(___,0,0x000),
    DN(C_6,1,0x000),
    DN(___,0,0x000),
    DN(B_5,1,0x000),
    DN(___,0,0x000),
};
static const unsigned char P35[] = {
    DN(A_5,1,0x000),
    DN(___,0,0x000),
    DN(___,0,0x000),
    DN(___,0,0x000),
    DN(___,0,0x000),
    DN(___,0,0x000),
    DN(___,0,0x000),
    DN(___,0,0x000),
    DN(Gs5,1,0x000),
    DN(___,0,0x000),
    DN(___,0,0x000),
    DN(___,0,0x000),
    DN(A_5,1,0x000),
    DN(___,0,0x000),
    DN(___,0,0x000),
    DN(___,0,0x000),
    DN(D_6,1,0x000),
    DN(___,0,0x000),
    DN(___,0,0x000),
    DN(___,0,0x000),
    DN(___,0,0x000),
    DN(___,0,0x000),
    DN(___,0,0x000),
    DN(___,0,0x000),
    DN(A_5,1,0x000),
    DN(___,0,0x000),
    DN(___,0,0x000),
    DN(___,0,0x000),
    DN(___,0,0x000),
    DN(___,0,0x000),
    DN(___,0,0x000),
    DN(___,0,0x000),
    DN(G_5,1,0x000),
    DN(___,0,0x000),
    DN(___,0,0x000),
    DN(___,0,0x000),
    DN(___,0,0x000),
    DN(___,0,0x000),
    DN(___,0,0x000),
    DN(___,0,0x000),
    DN(___,0,0x000),
    DN(___,0,0x000),
    DN(___,0,0x000),
    DN(___,0,0x000),
    DN(___,0,0x000),
    DN(___,0,0x000),
    DN(___,0,0x000),
    DN(___,0,0x000),
    DN(___,0,0x000),
    DN(___,0,0x000),
    DN(___,0,0x000),
    DN(___,0,0x000),
    DN(G_5,1,0x000),
    DN(___,0,0x000),
    DN(___,0,0x000),
    DN(___,0,0x000),
    DN(G_5,1,0x000),
    DN(___,0,0x000),
    DN(___,0,0x000),
    DN(___,0,0x000),
    DN(G_5,1,0x000),
    DN(___,0,0x000),
    DN(___,0,0x000),
    DN(___,0,0xB02),
};

static const unsigned char* const order1[] = {P0,P4,P8,P11,P14,P4,P8,P17,P18,P21,P24,P27,P30,P21,P33,P34,P35};
static const unsigned char* const order2[] = {P1,P5,P9,P12,P15,P5,P9,P12,P19,P22,P25,P28,P31,P22,P25,P31,P31};
static const unsigned char* const order3[] = {P2,P6,P10,P13,P16,P6,P10,P13,P20,P23,P13,P6,P32,P23,P13,P32,P32};
static const unsigned char* const order4[] = {P3,P7,P7,P7,P7,P7,P7,P7,P7,P7,P7,P7,P7,P7,P7,P7,P7};

static const unsigned char duty_instruments[] = {
8,128,245,128,
8,64,241,128,
8,128,240,128,
8,192,240,128,
8,0,241,128,
8,64,241,128,
8,128,241,128,
8,192,241,128,
8,128,240,128,
8,128,240,128,
8,128,240,128,
8,128,240,128,
8,128,240,128,
8,128,240,128,
8,128,240,128,
};
static const unsigned char wave_instruments[] = {
0,32,0,128,
0,32,1,128,
0,32,2,128,
0,32,3,128,
0,32,4,128,
0,32,5,128,
0,32,6,128,
0,32,7,128,
0,32,8,128,
0,32,9,128,
0,32,6,128,
0,32,11,128,
0,32,12,128,
0,32,13,128,
0,32,14,128,
};
static const unsigned char noise_instruments[] = {
161,0,32,20,13,6,32,32,
113,0,32,21,21,21,21,21,
162,0,27,21,32,32,32,30,
240,0,0,0,0,0,0,0,
240,0,0,0,0,0,0,0,
240,0,0,0,0,0,0,0,
240,0,0,0,0,0,0,0,
240,0,0,0,0,0,0,0,
240,0,0,0,0,0,0,0,
240,0,0,0,0,0,0,0,
240,0,0,0,0,0,0,0,
240,0,0,0,0,0,0,0,
240,0,0,0,0,0,0,0,
240,0,0,0,0,0,0,0,
240,0,0,0,0,0,0,0,
};

static const unsigned char waves[] = {
    0,0,255,255,255,255,255,255,255,255,255,255,255,255,255,255,
    0,0,0,0,255,255,255,255,255,255,255,255,255,255,255,255,
    0,0,0,0,0,0,0,0,255,255,255,255,255,255,255,255,
    0,0,0,0,0,0,0,0,0,0,0,0,255,255,255,255,
    0,1,18,35,52,69,86,103,120,137,154,171,188,205,222,239,
    254,220,186,152,118,84,50,16,18,52,86,120,154,188,222,255,
    122,205,220,181,1,85,86,205,220,184,98,21,90,205,221,184,
    15,15,15,15,15,15,15,15,15,15,15,15,15,15,15,15,
    254,252,250,248,246,244,242,240,242,244,246,248,250,252,254,255,
    254,221,204,187,170,153,136,119,138,189,241,36,87,138,189,238,
    132,17,97,237,87,71,90,173,206,163,23,121,221,32,3,71,
    217,160,78,215,117,204,36,12,118,74,120,173,94,206,185,24,
    208,29,62,136,1,167,169,227,54,106,121,37,51,91,102,234,
    51,85,41,103,232,129,192,87,193,49,231,6,17,125,228,135,
    135,130,152,108,49,140,39,225,205,9,165,230,187,225,93,121,
    173,32,27,237,23,154,80,166,51,156,179,38,33,164,136,21,
};

const hUGESong_t bg_song = {4, &order_cnt, order1, order2, order3,order4, duty_instruments, wave_instruments, noise_instruments, NULL, waves};
